<svg xmlns="http://www.w3.org/2000/svg" width="181.939" height="49.332" viewBox="0 0 181.939 49.332"><path data-name="Path 1" d="M52.458 37.532a14.74 14.74 0 0 1 0-20.8 15.5 15.5 0 0 1 21.348 0 14.741 14.741 0 0 1 0 20.8 15.57 15.57 0 0 1-21.348 0zm5.337-15.866a7.729 7.729 0 0 0-2.088 5.482 7.431 7.431 0 1 0 14.851 0 7.727 7.727 0 0 0-2.089-5.482 7.494 7.494 0 0 0-10.674 0z"/><path data-name="Path 2" d="M92.022 0v41.188H84.48V0z"/><path data-name="Path 3" d="M108.264 0v41.188h-7.541V0z"/><path data-name="Path 4" d="M143.941 13.053v28.136h-7.252v-2.262a11.767 11.767 0 0 1-7.831 2.842 13.4 13.4 0 0 1-10.616-4.757 15.432 15.432 0 0 1 .435-20.3 13 13 0 0 1 9.773-4.234 12.624 12.624 0 0 1 8.237 2.842v-2.263zm-7.542 18.274v-8.412a8.269 8.269 0 0 0-6.961-3.479 6.658 6.658 0 0 0-5.221 2.292 7.906 7.906 0 0 0-2.03 5.424 7.538 7.538 0 0 0 2.117 5.482 7.1 7.1 0 0 0 5.308 2.175 7.826 7.826 0 0 0 6.787-3.482z"/><path data-name="Path 5" d="M159.894 41.188h-7.25V0h7.541v15.083a12.434 12.434 0 0 1 7.948-2.611 13 13 0 0 1 9.773 4.234 15.432 15.432 0 0 1 .438 20.303 13.392 13.392 0 0 1-10.615 4.757 11.763 11.763 0 0 1-7.832-2.842zm.29-18.274v8.412a7.824 7.824 0 0 0 6.787 3.483 7.1 7.1 0 0 0 5.308-2.175 7.545 7.545 0 0 0 2.117-5.482 7.912 7.912 0 0 0-2.03-5.424 6.661 6.661 0 0 0-5.219-2.292 8.27 8.27 0 0 0-6.963 3.479z"/><path data-name="Path 6" d="M39.512 46.406a18.334 18.334 0 0 0-17.064-11.689s-.876.017-1.324.017a13.213 13.213 0 0 1-3.829-.566c-.31-.094-.635-.207-.971-.338l-.069-.027a13.37 13.37 0 0 1-1.837-.9l-.023-.013c-.115-.068-.226-.142-.337-.216l-.26-.17-5.183 5.655.221.165.108.081.161.115q.3.213.607.416l.109.07a20.851 20.851 0 0 0 4.718 2.271l.056.019q.388.128.782.24l.109.031q.394.111.794.206l.093.022c.295.069.568.127.838.179a20.962 20.962 0 0 0 3.914.374c.423 0 1.243-.016 1.3-.017a10.722 10.722 0 0 1 9.989 6.835l.066.17 7.1-2.758z"/><path data-name="Path 7" d="M26.695 1.209l-.21-.058-1.267 7.591.156.054a13.208 13.208 0 0 1 5.356 21.6l-.2.214.274.1a23.589 23.589 0 0 1 6.37 3.617l.153.122.122-.153a20.625 20.625 0 0 0 4.547-12.981A20.931 20.931 0 0 0 26.695 1.209z" fill="#ff3228"/><path data-name="Path 8" d="M19.868.487A20.83 20.83 0 0 0 0 21.316c0 .32.009.652.026 1.014 0 .07.008.138.013.207l.009.125c.014.225.03.449.051.672.009.1.021.2.032.291l.011.1a17.58 17.58 0 0 0 .142 1.007c.032.191.066.382.1.572q.039.2.083.408c.039.187.084.373.129.558l.012.048c.029.117.057.235.089.352.05.187.1.372.158.557l.032.111c.026.091.053.181.081.271.062.2.131.391.2.593l.042.121a17.52 17.52 0 0 0 .415 1.07c.03.072.063.142.095.213l.091.2.2.451c.05.1.1.208.156.313l.071.14.2.4c.067.136.152.274.235.426.075.133.15.265.228.395q.13.218.264.432c.076.121.154.242.232.361.1.147.194.293.294.437.076.109.153.217.231.324l.208.287 5.59-5.039.12-.117-.174-.269a13.817 13.817 0 0 1-.473-.81l-.049-.1a13.968 13.968 0 0 1-.391-.807l-.047-.1c-.117-.274-.228-.56-.337-.871-.02-.058-.039-.117-.06-.175-.109-.327-.2-.625-.269-.907l-.018-.078c-.07-.28-.13-.57-.186-.886l-.03-.168c-.049-.3-.088-.617-.117-.938l-.015-.2a13.174 13.174 0 0 1-.039-.994 13.18 13.18 0 0 1 11.871-13.14l.167-.017.411-7.679z" fill="#5082ff"/></svg>