<svg width="244" height="244" viewBox="0 0 244 244" fill="none" xmlns="http://www.w3.org/2000/svg">
<g clip-path="url(#clip0)">
<rect x="71.2074" y="32.1183" width="101.585" height="101.585" rx="20" fill="#5A91AF"/>
<path fill-rule="evenodd" clip-rule="evenodd" d="M97.4813 110.841C102.588 110.841 106.728 106.761 106.728 101.729C106.728 96.6973 102.588 92.6179 97.4813 92.6179C92.3744 92.6179 88.2345 96.6973 88.2345 101.729C88.2345 106.761 92.3744 110.841 97.4813 110.841ZM97.4813 116.915C105.993 116.915 112.893 110.116 112.893 101.729C112.893 93.3425 105.993 86.5436 97.4813 86.5436C88.9699 86.5436 82.07 93.3425 82.07 101.729C82.07 110.116 88.9699 116.915 97.4813 116.915Z" fill="white"/>
<path fill-rule="evenodd" clip-rule="evenodd" d="M148.03 110.841C153.137 110.841 157.277 106.761 157.277 101.729C157.277 96.6973 153.137 92.6179 148.03 92.6179C142.924 92.6179 138.784 96.6973 138.784 101.729C138.784 106.761 142.924 110.841 148.03 110.841ZM148.03 116.915C156.542 116.915 163.442 110.116 163.442 101.729C163.442 93.3425 156.542 86.5436 148.03 86.5436C139.519 86.5436 132.619 93.3425 132.619 101.729C132.619 110.116 139.519 116.915 148.03 116.915Z" fill="white"/>
<path fill-rule="evenodd" clip-rule="evenodd" d="M122.139 67.1059C127.246 67.1059 131.386 63.0266 131.386 57.9944C131.386 52.9623 127.246 48.883 122.139 48.883C117.033 48.883 112.893 52.9623 112.893 57.9944C112.893 63.0266 117.033 67.1059 122.139 67.1059ZM122.139 73.1802C130.651 73.1802 137.551 66.3813 137.551 57.9944C137.551 49.6076 130.651 42.8087 122.139 42.8087C113.628 42.8087 106.728 49.6076 106.728 57.9944C106.728 66.3813 113.628 73.1802 122.139 73.1802Z" fill="white"/>
<path fill-rule="evenodd" clip-rule="evenodd" d="M106.306 67.7133C101.068 71.5634 97.3225 77.2759 96.08 83.8554C96.5426 83.8212 97.0099 83.8038 97.4813 83.8038C99.1316 83.8038 100.731 84.0168 102.254 84.4165C103.34 79.4552 106.29 75.1771 110.345 72.3288C108.752 71.027 107.383 69.4668 106.306 67.7133ZM133.933 72.3288C138.083 75.2429 141.075 79.6539 142.097 84.7619C143.96 84.1407 145.955 83.8038 148.03 83.8038C148.083 83.8038 148.136 83.8041 148.189 83.8045C146.937 77.2464 143.197 71.5534 137.973 67.7133C136.896 69.4668 135.527 71.0271 133.933 72.3288ZM130.249 107.052C130.826 109.039 131.737 110.887 132.918 112.533C129.625 113.979 125.977 114.783 122.139 114.783C118.664 114.783 115.345 114.124 112.304 112.926C113.536 111.301 114.5 109.467 115.13 107.487C117.315 108.277 119.676 108.708 122.139 108.708C125.022 108.708 127.764 108.118 130.249 107.052Z" fill="white"/>
<path d="M28.3016 197.424C23.1656 197.424 18.5336 196.32 14.4056 194.112C10.2776 191.856 7.03757 188.76 4.68557 184.824C2.33357 180.84 1.15757 176.4 1.15757 171.504C1.15757 166.608 2.33357 162.192 4.68557 158.256C7.03757 154.272 10.2776 151.176 14.4056 148.968C18.5336 146.712 23.1656 145.584 28.3016 145.584C33.4376 145.584 38.0696 146.712 42.1976 148.968C46.3256 151.176 49.5656 154.248 51.9176 158.184C54.2696 162.12 55.4456 166.56 55.4456 171.504C55.4456 176.448 54.2696 180.888 51.9176 184.824C49.5656 188.76 46.3256 191.856 42.1976 194.112C38.0696 196.32 33.4376 197.424 28.3016 197.424ZM28.3016 189.216C31.6616 189.216 34.6856 188.472 37.3736 186.984C40.0616 185.448 42.1736 183.336 43.7096 180.648C45.2456 177.912 46.0136 174.864 46.0136 171.504C46.0136 168.144 45.2456 165.12 43.7096 162.432C42.1736 159.696 40.0616 157.584 37.3736 156.096C34.6856 154.56 31.6616 153.792 28.3016 153.792C24.9416 153.792 21.9176 154.56 19.2296 156.096C16.5416 157.584 14.4296 159.696 12.8936 162.432C11.3576 165.12 10.5896 168.144 10.5896 171.504C10.5896 174.864 11.3576 177.912 12.8936 180.648C14.4296 183.336 16.5416 185.448 19.2296 186.984C21.9176 188.472 24.9416 189.216 28.3016 189.216ZM86.3189 157.824C91.1669 157.824 95.0549 159.24 97.9829 162.072C100.911 164.904 102.375 169.104 102.375 174.672V196.704H93.3749V175.824C93.3749 172.464 92.5829 169.944 90.9989 168.264C89.4149 166.536 87.1589 165.672 84.2309 165.672C80.9189 165.672 78.3029 166.68 76.3829 168.696C74.4629 170.664 73.5029 173.52 73.5029 177.264V196.704H64.5029V158.256H73.0709V163.224C74.5589 161.448 76.4309 160.104 78.6869 159.192C80.9429 158.28 83.4869 157.824 86.3189 157.824ZM136.904 194.616C135.848 195.48 134.552 196.128 133.016 196.56C131.528 196.992 129.944 197.208 128.264 197.208C124.04 197.208 120.776 196.104 118.472 193.896C116.168 191.688 115.016 188.472 115.016 184.248V165.744H108.68V158.544H115.016V149.76H124.016V158.544H134.312V165.744H124.016V184.032C124.016 185.904 124.472 187.344 125.384 188.352C126.296 189.312 127.616 189.792 129.344 189.792C131.36 189.792 133.04 189.264 134.384 188.208L136.904 194.616ZM160.322 197.208C156.434 197.208 152.93 196.368 149.81 194.688C146.69 193.008 144.242 190.68 142.466 187.704C140.738 184.68 139.874 181.272 139.874 177.48C139.874 173.688 140.738 170.304 142.466 167.328C144.242 164.352 146.69 162.024 149.81 160.344C152.93 158.664 156.434 157.824 160.322 157.824C164.258 157.824 167.786 158.664 170.906 160.344C174.026 162.024 176.45 164.352 178.178 167.328C179.954 170.304 180.842 173.688 180.842 177.48C180.842 181.272 179.954 184.68 178.178 187.704C176.45 190.68 174.026 193.008 170.906 194.688C167.786 196.368 164.258 197.208 160.322 197.208ZM160.322 189.504C163.634 189.504 166.37 188.4 168.53 186.192C170.69 183.984 171.77 181.08 171.77 177.48C171.77 173.88 170.69 170.976 168.53 168.768C166.37 166.56 163.634 165.456 160.322 165.456C157.01 165.456 154.274 166.56 152.114 168.768C150.002 170.976 148.946 173.88 148.946 177.48C148.946 181.08 150.002 183.984 152.114 186.192C154.274 188.4 157.01 189.504 160.322 189.504ZM189.448 143.28H198.448V196.704H189.448V143.28ZM224.949 157.824C230.613 157.824 234.933 159.192 237.909 161.928C240.933 164.616 242.445 168.696 242.445 174.168V196.704H233.949V192.024C232.845 193.704 231.261 195 229.197 195.912C227.181 196.776 224.733 197.208 221.853 197.208C218.973 197.208 216.453 196.728 214.293 195.768C212.133 194.76 210.453 193.392 209.253 191.664C208.101 189.888 207.525 187.896 207.525 185.688C207.525 182.232 208.797 179.472 211.341 177.408C213.933 175.296 217.989 174.24 223.509 174.24H233.445V173.664C233.445 170.976 232.629 168.912 230.997 167.472C229.413 166.032 227.037 165.312 223.869 165.312C221.709 165.312 219.573 165.648 217.461 166.32C215.397 166.992 213.645 167.928 212.205 169.128L208.677 162.576C210.693 161.04 213.117 159.864 215.949 159.048C218.781 158.232 221.781 157.824 224.949 157.824ZM223.725 190.656C225.981 190.656 227.973 190.152 229.701 189.144C231.477 188.088 232.725 186.6 233.445 184.68V180.216H224.157C218.973 180.216 216.381 181.92 216.381 185.328C216.381 186.96 217.029 188.256 218.325 189.216C219.621 190.176 221.421 190.656 223.725 190.656Z" fill="#5A91AF"/>
</g>
<defs>
<clipPath id="clip0">
<rect width="244" height="244" fill="white"/>
</clipPath>
</defs>
</svg>
