<svg xmlns="http://www.w3.org/2000/svg" version="1.1" width="142" height="80.59" id="svg2" xml:space="preserve"><g transform="matrix(1.34316 0 0 -1.34316 0 80.59)" id="g10"><g transform="scale(.1)" id="g12" fill-opacity="1" fill-rule="nonzero" stroke="none"><path d="M172.789 306.594c-5.871 5.855-12.617.715-17.441-4.114l-6.434-6.429 13.508-13.508 8.359 8.359c4.414 4.414 7.317 10.375 2.008 15.692" id="path14" fill="#8fdae9"/><path d="M84.668 232.758c-10.688-10.703-9.977-25.391.64-36.004 10.614-10.617 25.317-11.34 36.008-.645 10.688 10.692 9.977 25.399-.64 36.016-10.602 10.594-25.32 11.328-36.008.633" id="path16" fill="#8fdae9"/><path d="M318.813 373.336l-12.543-12.543-56.911 56.91 17.047 17.047 63.735-15.355.164.16-39.547 39.547 12.539 12.543 56.906-56.911-16.394-16.398-65.352 15.672-.16-.16 40.516-40.512zm-74.461-74.449l-56.895 56.91 38.66 38.668 11.571-11.582-26.122-26.125 10.602-10.61 24.684 24.676 11.566-11.578-24.668-24.672 11.57-11.566 27.575 27.558L284.473 339l-40.121-40.113zm-61.672-61.676l-56.914 56.914 21.144 21.129c11.813 11.816 25.403 17.844 38.906 4.348 13.34-13.348 8.36-26.532-3.621-38.504l-9.168-9.16 22.2-22.196-12.547-12.531zm-49.789-52.684c-17.77-17.765-42.364-19.043-60.598-.8-18.25 18.25-16.961 42.839.809 60.613 17.757 17.765 42.347 19.043 60.597.793 18.242-18.235 16.965-42.824-.808-60.606zM76.176 441.555c-98.48-98.473-102.125-255.309-7.133-357.907l365.035 365.036c-102.586 94.992-259.41 91.347-357.902-7.129" id="path18" fill="#8fdae9"/><path d="M697.953 523.828c-98.484-98.473-102.129-255.297-7.129-357.894l365.016 365.015c-102.574 95.004-259.41 91.352-357.887-7.121" id="path20" fill="#8fdae9"/><path d="M328.59 199.781l-24.676 10.703 10.777-24.601 13.899 13.898" id="path22" fill="#025c6e"/><path d="M436.387 262.242l-56.91 56.914 38.664 38.657 11.562-11.583-26.109-26.125 10.601-10.601 24.676 24.672 11.574-11.571-24.668-24.675 11.567-11.578 27.574 27.574 11.582-11.578-40.113-40.106zm-42.848-42.832l-45.809 45.809-16.238-16.231-11.101 11.075 45.023 45.027L376.5 294l-16.234-16.23 45.824-45.832-12.551-12.528zm-33.109-33.117l-16.973 7.141-22.102-22.102 7.317-16.797-13.824-13.816-32.313 81.492 10.371 10.363 81.672-32.14-14.148-14.141zm-77.055-77.059l-45.816 45.821-16.235-16.231-11.097 11.082 45.015 45.02 11.086-11.094-16.234-16.23 45.828-45.829-12.547-12.539zm-49.348-52.246c-7.316-7.316-15.925-11.574-26.293-11.972l-.886 18.718c5.957-.808 12.136 1.38 16.32 5.559 4.094 4.09 6.758 10.594 2.738 14.61-10.453 10.456-31.515-21.856-50.48-2.891-12.137 12.148-7.961 29.031 3.222 40.195 6.415 6.426 14.297 10.938 23.379 11.504l.805-18.02c-4.586.567-9.805-2.246-12.855-5.293-3.536-3.554-6.836-10.046-2.571-14.316 10.36-10.371 29.895 22.512 49.828 2.57 12.707-12.687 8.532-28.937-3.207-40.664zm214.645 377.078l-365-365.007c99.391-91.536 259.496-91.282 357.891 7.117 98.398 98.39 98.664 258.508 7.109 357.89" id="path24" fill="#025c6e"/><path d="M981.039 76.168c98.481 98.477 102.121 255.309 7.129 357.898L623.141 69.046C725.727-25.96 882.555-22.3 981.039 76.169" id="path26" fill="#025c6e"/></g></g></svg>