<?xml version="1.0" encoding="utf-8"?>
<!-- Generator: Adobe Illustrator 23.0.6, SVG Export Plug-In . SVG Version: 6.00 Build 0)  -->
<svg version="1.1" id="LOGO_x5F_DERDEN" xmlns="http://www.w3.org/2000/svg" xmlns:xlink="http://www.w3.org/1999/xlink" x="0px"
	 y="0px" viewBox="0 0 509.1 134.16" style="enable-background:new 0 0 509.1 134.16;" xml:space="preserve">
<circle cx="231.21" cy="14.29" r="9.5"/>
<g>
	<path d="M74.55,67.71c-2.13-1.43-4.51-2.51-7.17-3.25c-2.66-0.73-5.29-1.39-7.9-1.96c-2.21-0.49-4.35-0.9-6.43-1.22
		c-2.08-0.32-3.92-0.75-5.51-1.28c-1.59-0.53-2.88-1.18-3.86-1.96c-0.98-0.77-1.47-1.86-1.47-3.25c0-2.28,0.98-4.02,2.94-5.21
		c1.96-1.18,4.57-1.77,7.84-1.77c3.59,0,6.41,0.67,8.45,2.02c2.04,1.35,3.27,3.74,3.68,7.17h15.06c-0.65-6.37-3.23-11.43-7.72-15.19
		c-4.49-3.76-10.9-5.63-19.23-5.63c-3.6,0-6.94,0.41-10.04,1.22c-3.11,0.82-5.82,2.06-8.15,3.74c-2.33,1.67-4.15,3.76-5.45,6.24
		c-1.31,2.49-1.96,5.45-1.96,8.88c0,3.43,0.63,6.24,1.9,8.45c1.26,2.21,2.94,4,5.02,5.39c2.08,1.39,4.45,2.45,7.11,3.19
		c2.65,0.73,5.41,1.39,8.27,1.96c2.13,0.41,4.19,0.8,6.19,1.16c2,0.37,3.76,0.84,5.27,1.41c1.51,0.57,2.74,1.31,3.67,2.21
		c0.94,0.9,1.41,2.09,1.41,3.55c0,2.21-1,3.96-3,5.27c-2,1.31-4.84,1.96-8.51,1.96c-3.76,0-6.84-0.82-9.25-2.45
		c-2.41-1.63-3.9-4.29-4.47-7.96H25.8c0.49,6.7,3.22,12.07,8.21,16.11c4.98,4.04,12.05,6.07,21.19,6.07c3.92,0,7.49-0.47,10.72-1.41
		c3.23-0.94,6.01-2.27,8.33-3.98c2.33-1.71,4.15-3.82,5.45-6.31c1.31-2.49,1.96-5.33,1.96-8.51c0-3.68-0.65-6.68-1.96-9
		C78.39,71.02,76.68,69.14,74.55,67.71z"/>
	<polygon points="223.51,114.02 210.35,114.02 210.35,130.05 239.54,130.04 239.54,37.89 222.88,37.89 	"/>
	<path d="M210.37,102.41V6.71h-16.66v36.63h-0.77c-5.27-4.68-12.01-7.48-19.36-7.43c-16.85,0.1-30.51,15.07-30.51,33.43
		c0,18.36,13.66,33.17,30.51,33.07c7.62-0.05,14.59-3.14,19.93-8.21h0.81v8.21H210.37z M175.51,88.7c-10.1,0-18.29-8.75-18.29-19.54
		c0-10.79,8.19-19.54,18.29-19.54c10.1,0,18.29,8.75,18.29,19.54C193.8,79.95,185.61,88.7,175.51,88.7z"/>
	<path d="M116.07,70.47c-0.49,1.55-0.9,2.92-1.23,4.1c-0.33,1.18-0.61,2.23-0.86,3.13c-0.33,0.98-0.53,3.37-0.61,4.27h-0.25
		c-0.16-0.9-0.41-3.29-0.73-4.27c-0.24-0.9-0.55-1.94-0.92-3.13c-0.37-1.18-0.76-2.55-1.16-4.1l-10.04-32.58H83.36l22.37,64.46
		h14.79l22.49-64.46h-16.66L116.07,70.47z"/>
</g>
<polygon points="13.11,12.78 13.11,35.91 7.16,35.91 7.16,7.08 7.16,7.08 7.16,6.71 100.3,6.71 100.3,12.78 "/>
<g>
	<g>
		<path d="M279.92,58.68c-2.1,0-3.77-0.45-5-1.35c-1.23-0.9-1.88-2.14-1.95-3.73h4.3c0.09,0.71,0.36,1.24,0.81,1.59
			c0.45,0.35,1.05,0.53,1.81,0.53c0.69,0,1.23-0.12,1.63-0.36c0.4-0.24,0.6-0.6,0.6-1.06c0-0.32-0.1-0.57-0.31-0.77
			c-0.21-0.2-0.47-0.35-0.81-0.47c-0.33-0.12-0.72-0.21-1.16-0.28c-0.44-0.07-0.89-0.14-1.35-0.24c-0.62-0.11-1.23-0.24-1.84-0.4
			c-0.62-0.16-1.17-0.4-1.66-0.71c-0.49-0.32-0.89-0.74-1.19-1.27c-0.3-0.53-0.45-1.21-0.45-2.05c0-0.74,0.16-1.4,0.49-1.98
			c0.32-0.58,0.77-1.06,1.33-1.44c0.56-0.38,1.21-0.67,1.97-0.86c0.75-0.2,1.55-0.29,2.39-0.29c2.03,0,3.58,0.41,4.66,1.23
			c1.08,0.82,1.67,1.94,1.79,3.35h-4.19c-0.09-0.65-0.34-1.09-0.74-1.33c-0.4-0.23-0.92-0.35-1.55-0.35c-0.56,0-1.03,0.11-1.41,0.32
			c-0.38,0.21-0.57,0.54-0.57,0.99c0,0.26,0.09,0.47,0.28,0.62c0.19,0.15,0.44,0.27,0.75,0.38c0.32,0.1,0.68,0.19,1.1,0.27
			c0.42,0.08,0.85,0.15,1.3,0.22c0.63,0.11,1.27,0.25,1.91,0.41c0.64,0.16,1.23,0.4,1.76,0.74c0.53,0.34,0.96,0.79,1.3,1.36
			c0.33,0.57,0.5,1.31,0.5,2.22c0,0.78-0.17,1.47-0.49,2.06c-0.33,0.6-0.78,1.09-1.35,1.48c-0.58,0.39-1.27,0.69-2.07,0.89
			C281.71,58.57,280.85,58.68,279.92,58.68"/>
		<path d="M293.15,58.4c-0.67,0-1.28-0.06-1.83-0.18c-0.55-0.12-1.03-0.33-1.44-0.63c-0.41-0.3-0.73-0.7-0.95-1.21
			c-0.22-0.51-0.33-1.15-0.33-1.91v-7.67h-1.9v-2.85h1.9v-5.95h4.44v5.95h2.6v2.85h-2.6v6.7c0,0.56,0.14,0.93,0.43,1.12
			c0.29,0.19,0.67,0.28,1.16,0.28c0.2,0,0.4,0,0.59-0.01c0.19-0.01,0.33-0.01,0.42-0.01v3.32c-0.2,0.06-0.52,0.11-0.93,0.15
			C294.28,58.37,293.76,58.4,293.15,58.4"/>
	</g>
	<path d="M297.28,58.23h4.55V43.94h-4.55V58.23z M297.28,41.96h4.55v-3.69h-4.55V41.96z"/>
	<g>
		<path d="M304,43.94h4.35v2.04h0.08c0.45-0.74,1.02-1.34,1.72-1.79c0.7-0.45,1.57-0.67,2.61-0.67c0.95,0,1.76,0.22,2.44,0.67
			c0.68,0.45,1.2,1.06,1.58,1.84h0.06c0.56-0.87,1.21-1.51,1.97-1.91c0.75-0.4,1.59-0.6,2.53-0.6c0.8,0,1.51,0.13,2.12,0.39
			c0.61,0.26,1.12,0.63,1.52,1.1c0.4,0.47,0.7,1.05,0.91,1.72c0.21,0.67,0.31,1.41,0.31,2.21v9.3h-4.55v-8.49
			c0-0.78-0.16-1.38-0.49-1.8c-0.32-0.42-0.83-0.63-1.52-0.63c-0.73,0-1.28,0.27-1.68,0.81c-0.39,0.54-0.59,1.24-0.59,2.09v8.01
			h-4.55v-8.49c0-0.78-0.16-1.38-0.49-1.8c-0.33-0.42-0.83-0.63-1.52-0.63c-0.71,0-1.26,0.27-1.66,0.81c-0.4,0.54-0.6,1.24-0.6,2.09
			v8.01H304V43.94z"/>
		<path d="M333.17,58.65c-1.66,0-2.91-0.49-3.75-1.47c-0.85-0.98-1.27-2.26-1.27-3.86v-9.38h4.52v8.43c0,0.78,0.18,1.38,0.53,1.8
			c0.35,0.42,0.89,0.63,1.62,0.63c0.78,0,1.4-0.26,1.84-0.8c0.44-0.53,0.67-1.22,0.67-2.08v-7.98h4.55v14.29h-4.35v-1.76h-0.08
			c-0.52,0.71-1.11,1.25-1.77,1.62C335.01,58.46,334.18,58.65,333.17,58.65"/>
	</g>
	<rect x="344.09" y="38.27" width="4.6" height="19.96"/>
	<g>
		<path d="M360.39,49.55c-0.09-0.86-0.38-1.53-0.87-2.04c-0.49-0.5-1.1-0.75-1.84-0.75c-0.87,0-1.54,0.25-2.01,0.75
			c-0.46,0.5-0.77,1.18-0.92,2.04H360.39z M357.87,58.65c-1.17,0-2.23-0.19-3.18-0.57c-0.95-0.38-1.75-0.91-2.4-1.59
			c-0.65-0.68-1.15-1.48-1.51-2.42c-0.35-0.93-0.53-1.93-0.53-3.01c0-1.06,0.18-2.05,0.53-2.97c0.35-0.92,0.86-1.72,1.51-2.4
			c0.65-0.68,1.42-1.21,2.32-1.59c0.89-0.38,1.89-0.57,2.99-0.57c1.03,0,1.94,0.16,2.75,0.47c0.81,0.32,1.52,0.75,2.13,1.31
			c0.86,0.78,1.49,1.77,1.91,2.97c0.42,1.2,0.62,2.53,0.6,3.98h-10.27c0.15,0.97,0.48,1.73,1,2.29c0.52,0.56,1.26,0.84,2.2,0.84
			c0.6,0,1.09-0.13,1.48-0.38s0.69-0.6,0.89-1.05h4.44c-0.15,0.65-0.43,1.27-0.84,1.86c-0.41,0.59-0.93,1.09-1.56,1.52
			c-0.6,0.43-1.26,0.75-2,0.98C359.61,58.54,358.79,58.65,357.87,58.65"/>
		<path d="M366.53,43.94h4.35v2.23h0.08c0.5-0.85,1.06-1.48,1.68-1.87c0.61-0.39,1.36-0.59,2.23-0.59c0.43,0,0.73,0.04,0.89,0.11
			v3.91h-0.11c-1.4-0.2-2.51,0.03-3.34,0.71c-0.83,0.68-1.24,1.8-1.24,3.36v6.42h-4.55V43.94z"/>
	</g>
	<path d="M377.22,58.23h4.55V43.94h-4.55V58.23z M377.22,41.96h4.55v-3.69h-4.55V41.96z"/>
	<g>
		<path d="M383.94,43.94h4.38v1.95h0.08c0.54-0.78,1.16-1.37,1.86-1.77c0.7-0.4,1.55-0.6,2.55-0.6c0.78,0,1.48,0.13,2.09,0.4
			c0.61,0.27,1.14,0.64,1.56,1.12c0.43,0.47,0.75,1.04,0.98,1.7c0.22,0.66,0.34,1.39,0.34,2.19v9.3h-4.55v-8.37
			c0-0.76-0.19-1.38-0.56-1.84c-0.37-0.46-0.93-0.7-1.68-0.7c-0.76,0-1.37,0.28-1.83,0.84c-0.46,0.56-0.68,1.28-0.68,2.18v7.9h-4.55
			V43.94z"/>
		<path d="M406.47,54.07c0.99,0,1.72-0.34,2.19-1.03c0.47-0.69,0.71-1.54,0.71-2.54c0-0.48-0.06-0.94-0.18-1.37
			c-0.12-0.43-0.31-0.81-0.56-1.13c-0.25-0.33-0.56-0.58-0.92-0.77c-0.36-0.19-0.78-0.28-1.24-0.28c-0.86,0-1.54,0.32-2.05,0.96
			s-0.77,1.51-0.77,2.61c0,1.08,0.25,1.94,0.77,2.58C404.93,53.75,405.61,54.07,406.47,54.07 M406.5,63.17
			c-1.97,0-3.57-0.39-4.8-1.17c-1.23-0.78-1.95-1.93-2.18-3.43h4.41c0.13,0.37,0.39,0.7,0.78,0.98s0.97,0.42,1.73,0.42
			c0.97,0,1.67-0.24,2.09-0.71c0.43-0.47,0.64-1.15,0.64-2.02V55.8h-0.11c-0.43,0.48-0.93,0.88-1.49,1.19
			c-0.57,0.31-1.29,0.46-2.16,0.46c-0.8,0-1.57-0.15-2.32-0.45c-0.74-0.3-1.4-0.73-1.98-1.3c-0.58-0.57-1.04-1.27-1.38-2.12
			c-0.34-0.85-0.52-1.82-0.52-2.92c0-1.04,0.14-2,0.43-2.87c0.29-0.87,0.7-1.63,1.23-2.26c0.53-0.63,1.16-1.13,1.9-1.48
			c0.74-0.35,1.55-0.53,2.44-0.53c0.95,0,1.75,0.18,2.4,0.53c0.65,0.35,1.19,0.83,1.62,1.42h0.06v-1.53h4.35v12.9
			c0,1.08-0.17,2.01-0.52,2.79c-0.34,0.78-0.81,1.43-1.38,1.95c-0.63,0.56-1.4,0.96-2.3,1.21S407.56,63.17,406.5,63.17"/>
		<path d="M421.9,58.68c-2.1,0-3.77-0.45-5-1.35c-1.23-0.9-1.88-2.14-1.95-3.73h4.3c0.09,0.71,0.36,1.24,0.81,1.59
			c0.45,0.35,1.05,0.53,1.81,0.53c0.69,0,1.23-0.12,1.63-0.36c0.4-0.24,0.6-0.6,0.6-1.06c0-0.32-0.1-0.57-0.31-0.77
			c-0.21-0.2-0.47-0.35-0.81-0.47c-0.33-0.12-0.72-0.21-1.16-0.28c-0.44-0.07-0.89-0.14-1.35-0.24c-0.62-0.11-1.23-0.24-1.84-0.4
			s-1.17-0.4-1.66-0.71c-0.49-0.32-0.89-0.74-1.19-1.27c-0.3-0.53-0.45-1.21-0.45-2.05c0-0.74,0.16-1.4,0.49-1.98
			c0.32-0.58,0.77-1.06,1.33-1.44s1.21-0.67,1.97-0.86c0.75-0.2,1.55-0.29,2.39-0.29c2.03,0,3.58,0.41,4.66,1.23
			c1.08,0.82,1.67,1.94,1.79,3.35h-4.19c-0.09-0.65-0.34-1.09-0.74-1.33c-0.4-0.23-0.92-0.35-1.55-0.35c-0.56,0-1.03,0.11-1.41,0.32
			c-0.38,0.21-0.57,0.54-0.57,0.99c0,0.26,0.09,0.47,0.28,0.62c0.18,0.15,0.43,0.27,0.75,0.38c0.32,0.1,0.68,0.19,1.1,0.27
			c0.42,0.08,0.85,0.15,1.3,0.22c0.63,0.11,1.27,0.25,1.91,0.41c0.64,0.16,1.23,0.4,1.76,0.74c0.53,0.34,0.96,0.79,1.3,1.36
			c0.33,0.57,0.5,1.31,0.5,2.22c0,0.78-0.17,1.47-0.49,2.06c-0.33,0.6-0.78,1.09-1.36,1.48c-0.57,0.39-1.26,0.69-2.06,0.89
			C423.7,58.57,422.83,58.68,421.9,58.68"/>
		<path d="M430.67,46.84h-1.84v-2.9h1.84v-1.03c0-1.43,0.39-2.54,1.17-3.32c0.62-0.6,1.47-0.98,2.57-1.16
			c1.1-0.18,2.26-0.2,3.49-0.07v3.21c-0.43-0.02-0.81-0.01-1.15,0.01c-0.33,0.03-0.61,0.1-0.84,0.21c-0.22,0.11-0.4,0.28-0.52,0.52
			s-0.18,0.54-0.18,0.94v0.7h2.68v2.9h-2.68v11.39h-4.55V46.84z"/>
		<path d="M445.91,55.44c1.01,0,1.76-0.4,2.27-1.19c0.51-0.79,0.77-1.84,0.77-3.14s-0.25-2.35-0.77-3.15
			c-0.51-0.8-1.27-1.2-2.27-1.2c-1,0-1.76,0.4-2.26,1.2c-0.5,0.8-0.75,1.85-0.75,3.15s0.25,2.35,0.75,3.14
			C444.15,55.04,444.9,55.44,445.91,55.44 M445.94,58.68c-1.15,0-2.2-0.19-3.14-0.57c-0.94-0.38-1.74-0.91-2.42-1.59
			c-0.67-0.68-1.19-1.48-1.55-2.4c-0.36-0.92-0.54-1.92-0.54-3c0-1.08,0.18-2.08,0.54-3c0.36-0.92,0.88-1.72,1.55-2.4
			c0.67-0.68,1.48-1.21,2.42-1.59c0.94-0.38,1.99-0.57,3.14-0.57s2.2,0.19,3.14,0.57c0.94,0.38,1.74,0.91,2.4,1.59
			c0.66,0.68,1.17,1.48,1.54,2.4c0.36,0.92,0.54,1.92,0.54,3c0,1.08-0.18,2.08-0.54,3c-0.36,0.92-0.88,1.72-1.54,2.4
			c-0.66,0.68-1.46,1.21-2.4,1.59C448.14,58.49,447.09,58.68,445.94,58.68"/>
		<path d="M455.09,43.94h4.38v1.95h0.08c0.54-0.78,1.16-1.37,1.86-1.77c0.7-0.4,1.55-0.6,2.55-0.6c0.78,0,1.48,0.13,2.09,0.4
			c0.61,0.27,1.14,0.64,1.56,1.12c0.43,0.47,0.75,1.04,0.98,1.7c0.22,0.66,0.34,1.39,0.34,2.19v9.3h-4.55v-8.37
			c0-0.76-0.19-1.38-0.56-1.84c-0.37-0.46-0.93-0.7-1.68-0.7c-0.76,0-1.37,0.28-1.83,0.84c-0.46,0.56-0.68,1.28-0.68,2.18v7.9h-4.55
			V43.94z"/>
		<path d="M477.78,55.08c0.95,0,1.69-0.37,2.22-1.12c0.53-0.74,0.79-1.7,0.79-2.88c0-0.6-0.06-1.15-0.18-1.66
			c-0.12-0.51-0.31-0.95-0.56-1.31c-0.25-0.36-0.56-0.65-0.92-0.85c-0.36-0.21-0.8-0.31-1.3-0.31c-0.91,0-1.62,0.38-2.12,1.13
			c-0.5,0.75-0.75,1.74-0.75,2.95c0,1.25,0.25,2.23,0.74,2.96C476.2,54.71,476.89,55.08,477.78,55.08 M476.61,58.68
			c-0.91,0-1.75-0.17-2.51-0.52c-0.76-0.34-1.42-0.84-1.98-1.49c-0.56-0.65-0.99-1.45-1.3-2.39c-0.31-0.94-0.46-2-0.46-3.2
			c0-1.12,0.15-2.14,0.46-3.07c0.31-0.93,0.73-1.72,1.28-2.39c0.55-0.66,1.2-1.18,1.97-1.55c0.76-0.37,1.61-0.56,2.54-0.56
			c1,0,1.81,0.19,2.43,0.57c0.61,0.38,1.13,0.87,1.56,1.47h0.08v-7.29h4.55v19.96h-4.35V56.3h-0.06c-0.43,0.74-1,1.33-1.72,1.74
			C478.39,58.47,477.56,58.68,476.61,58.68"/>
		<path d="M493.5,58.68c-2.1,0-3.77-0.45-5-1.35c-1.23-0.9-1.88-2.14-1.95-3.73h4.3c0.09,0.71,0.36,1.24,0.81,1.59
			c0.45,0.35,1.05,0.53,1.81,0.53c0.69,0,1.23-0.12,1.63-0.36c0.4-0.24,0.6-0.6,0.6-1.06c0-0.32-0.1-0.57-0.31-0.77
			c-0.21-0.2-0.47-0.35-0.81-0.47c-0.33-0.12-0.72-0.21-1.16-0.28c-0.44-0.07-0.89-0.14-1.35-0.24c-0.62-0.11-1.23-0.24-1.84-0.4
			c-0.62-0.16-1.17-0.4-1.66-0.71c-0.49-0.32-0.89-0.74-1.19-1.27c-0.3-0.53-0.45-1.21-0.45-2.05c0-0.74,0.16-1.4,0.49-1.98
			c0.32-0.58,0.77-1.06,1.33-1.44c0.56-0.38,1.21-0.67,1.97-0.86c0.75-0.2,1.55-0.29,2.39-0.29c2.03,0,3.58,0.41,4.66,1.23
			c1.08,0.82,1.67,1.94,1.79,3.35h-4.19c-0.09-0.65-0.34-1.09-0.74-1.33c-0.4-0.23-0.92-0.35-1.55-0.35c-0.56,0-1.03,0.11-1.41,0.32
			c-0.38,0.21-0.57,0.54-0.57,0.99c0,0.26,0.09,0.47,0.28,0.62c0.18,0.15,0.43,0.27,0.75,0.38c0.32,0.1,0.68,0.19,1.1,0.27
			c0.42,0.08,0.85,0.15,1.3,0.22c0.63,0.11,1.27,0.25,1.91,0.41c0.64,0.16,1.23,0.4,1.76,0.74c0.53,0.34,0.96,0.79,1.3,1.36
			c0.33,0.57,0.5,1.31,0.5,2.22c0,0.78-0.17,1.47-0.49,2.06c-0.33,0.6-0.78,1.09-1.36,1.48c-0.57,0.39-1.26,0.69-2.07,0.89
			C495.29,58.57,494.43,58.68,493.5,58.68"/>
		<path d="M273.43,77.43h4.69l1.95,6.45c0.09,0.37,0.19,0.73,0.29,1.07c0.1,0.34,0.19,0.65,0.26,0.91c0.07,0.32,0.15,0.61,0.22,0.89
			h0.06c0.07-0.28,0.15-0.58,0.22-0.89c0.08-0.26,0.16-0.56,0.25-0.91c0.09-0.34,0.2-0.7,0.31-1.07l1.98-6.45h4.55l-4.94,14.29
			h-4.91L273.43,77.43z"/>
		<path d="M295.65,88.93c1.01,0,1.76-0.4,2.27-1.19c0.51-0.79,0.77-1.84,0.77-3.14c0-1.3-0.25-2.35-0.77-3.15
			c-0.51-0.8-1.27-1.2-2.27-1.2c-1,0-1.76,0.4-2.26,1.2c-0.5,0.8-0.75,1.85-0.75,3.15c0,1.3,0.25,2.35,0.75,3.14
			C293.89,88.54,294.64,88.93,295.65,88.93 M295.68,92.17c-1.15,0-2.2-0.19-3.14-0.57c-0.94-0.38-1.74-0.91-2.42-1.59
			c-0.67-0.68-1.19-1.48-1.55-2.4c-0.36-0.92-0.54-1.92-0.54-3c0-1.08,0.18-2.08,0.54-3c0.36-0.92,0.88-1.72,1.55-2.4
			c0.67-0.68,1.48-1.21,2.42-1.59c0.94-0.38,1.99-0.57,3.14-0.57s2.2,0.19,3.14,0.57c0.94,0.38,1.74,0.91,2.4,1.59
			c0.66,0.68,1.17,1.48,1.54,2.4c0.36,0.92,0.54,1.92,0.54,3c0,1.08-0.18,2.08-0.54,3c-0.36,0.92-0.88,1.72-1.54,2.4
			c-0.66,0.68-1.46,1.21-2.4,1.59C297.88,91.98,296.83,92.17,295.68,92.17"/>
		<path d="M311.81,88.93c1.01,0,1.76-0.4,2.27-1.19c0.51-0.79,0.77-1.84,0.77-3.14c0-1.3-0.25-2.35-0.77-3.15
			c-0.51-0.8-1.27-1.2-2.27-1.2c-1,0-1.76,0.4-2.26,1.2c-0.5,0.8-0.75,1.85-0.75,3.15c0,1.3,0.25,2.35,0.75,3.14
			C310.05,88.54,310.8,88.93,311.81,88.93 M311.84,92.17c-1.15,0-2.2-0.19-3.14-0.57c-0.94-0.38-1.74-0.91-2.42-1.59
			c-0.67-0.68-1.19-1.48-1.55-2.4c-0.36-0.92-0.54-1.92-0.54-3c0-1.08,0.18-2.08,0.54-3c0.36-0.92,0.88-1.72,1.55-2.4
			c0.67-0.68,1.48-1.21,2.42-1.59c0.94-0.38,1.99-0.57,3.14-0.57c1.15,0,2.2,0.19,3.14,0.57c0.94,0.38,1.74,0.91,2.4,1.59
			c0.66,0.68,1.17,1.48,1.54,2.4c0.36,0.92,0.54,1.92,0.54,3c0,1.08-0.18,2.08-0.54,3c-0.36,0.92-0.88,1.72-1.54,2.4
			s-1.46,1.21-2.4,1.59C314.04,91.98,312.99,92.17,311.84,92.17"/>
		<path d="M320.99,77.43h4.35v2.23h0.08c0.5-0.85,1.06-1.48,1.68-1.87c0.61-0.39,1.36-0.59,2.23-0.59c0.43,0,0.73,0.04,0.89,0.11
			v3.91h-0.11c-1.4-0.2-2.51,0.03-3.33,0.71c-0.83,0.68-1.24,1.8-1.24,3.36v6.42h-4.55V77.43z"/>
		<path d="M342.79,88.57c0.95,0,1.69-0.37,2.22-1.12c0.53-0.74,0.79-1.7,0.79-2.88c0-0.6-0.06-1.15-0.18-1.66
			c-0.12-0.51-0.31-0.95-0.56-1.31c-0.25-0.36-0.56-0.65-0.92-0.85c-0.36-0.21-0.8-0.31-1.3-0.31c-0.91,0-1.62,0.38-2.12,1.13
			c-0.5,0.75-0.75,1.74-0.75,2.95c0,1.25,0.24,2.23,0.74,2.96C341.21,88.21,341.9,88.57,342.79,88.57 M341.62,92.17
			c-0.91,0-1.75-0.17-2.51-0.52c-0.76-0.34-1.42-0.84-1.98-1.49c-0.56-0.65-0.99-1.45-1.3-2.39c-0.31-0.94-0.46-2-0.46-3.2
			c0-1.12,0.15-2.14,0.46-3.07c0.31-0.93,0.73-1.72,1.28-2.39c0.55-0.66,1.2-1.18,1.97-1.55c0.76-0.37,1.61-0.56,2.54-0.56
			c1,0,1.81,0.19,2.43,0.57c0.61,0.38,1.13,0.87,1.56,1.47h0.08v-7.29h4.55v19.96h-4.35V89.8h-0.06c-0.43,0.74-1,1.33-1.72,1.74
			C343.4,91.96,342.57,92.17,341.62,92.17"/>
		<path d="M361.91,83.04c-0.09-0.86-0.38-1.53-0.87-2.04c-0.49-0.5-1.1-0.75-1.84-0.75c-0.87,0-1.54,0.25-2.01,0.75
			c-0.46,0.5-0.77,1.18-0.92,2.04H361.91z M359.4,92.14c-1.17,0-2.23-0.19-3.18-0.57c-0.95-0.38-1.75-0.91-2.4-1.59
			c-0.65-0.68-1.15-1.48-1.51-2.42c-0.35-0.93-0.53-1.93-0.53-3.01c0-1.06,0.18-2.05,0.53-2.97c0.35-0.92,0.86-1.72,1.51-2.4
			c0.65-0.68,1.42-1.21,2.32-1.59c0.89-0.38,1.89-0.57,2.99-0.57c1.03,0,1.94,0.16,2.75,0.47c0.81,0.32,1.52,0.75,2.13,1.31
			c0.86,0.78,1.49,1.77,1.91,2.97c0.42,1.2,0.62,2.53,0.6,3.98h-10.27c0.15,0.97,0.48,1.73,1,2.29c0.52,0.56,1.26,0.84,2.2,0.84
			c0.6,0,1.09-0.13,1.48-0.38c0.39-0.25,0.69-0.6,0.89-1.05h4.44c-0.15,0.65-0.43,1.27-0.84,1.86c-0.41,0.59-0.93,1.09-1.56,1.52
			c-0.6,0.43-1.26,0.75-2,0.98C361.13,92.03,360.31,92.14,359.4,92.14"/>
		<path d="M275.82,105.26h4.55v3.69h-4.55V105.26z M275.98,130.02c-0.39,0-0.83-0.02-1.31-0.06c-0.48-0.04-0.9-0.09-1.26-0.17v-3.16
			c0.39,0,0.74-0.01,1.05-0.03c0.31-0.02,0.56-0.08,0.75-0.17c0.2-0.09,0.34-0.24,0.45-0.45c0.1-0.2,0.15-0.5,0.15-0.89v-14.18h4.55
			v14.4c0,0.95-0.1,1.69-0.29,2.23c-0.2,0.54-0.46,0.99-0.8,1.34c-0.41,0.41-0.89,0.7-1.44,0.87
			C277.29,129.94,276.67,130.02,275.98,130.02"/>
		<path d="M289.52,122.43c1.01,0,1.76-0.4,2.27-1.19c0.51-0.79,0.77-1.84,0.77-3.14c0-1.3-0.25-2.35-0.77-3.15
			c-0.51-0.8-1.27-1.2-2.27-1.2c-1,0-1.76,0.4-2.26,1.2c-0.5,0.8-0.75,1.85-0.75,3.15c0,1.3,0.25,2.35,0.75,3.14
			C287.76,122.03,288.52,122.43,289.52,122.43 M289.55,125.67c-1.15,0-2.2-0.19-3.14-0.57c-0.94-0.38-1.74-0.91-2.42-1.59
			c-0.67-0.68-1.19-1.48-1.55-2.4c-0.36-0.92-0.54-1.92-0.54-3c0-1.08,0.18-2.08,0.54-3c0.36-0.92,0.88-1.72,1.55-2.4
			c0.67-0.68,1.48-1.21,2.42-1.59c0.94-0.38,1.99-0.57,3.14-0.57c1.15,0,2.2,0.19,3.14,0.57c0.94,0.38,1.74,0.91,2.4,1.59
			c0.66,0.68,1.17,1.48,1.54,2.4c0.36,0.92,0.54,1.92,0.54,3c0,1.08-0.18,2.08-0.54,3c-0.36,0.92-0.88,1.72-1.54,2.4
			c-0.66,0.68-1.46,1.21-2.4,1.59C291.75,125.48,290.7,125.67,289.55,125.67"/>
		<path d="M303.62,125.64c-1.66,0-2.91-0.49-3.75-1.47c-0.85-0.98-1.27-2.26-1.27-3.86v-9.38h4.52v8.43c0,0.78,0.18,1.38,0.53,1.8
			c0.35,0.42,0.89,0.63,1.62,0.63c0.78,0,1.4-0.27,1.84-0.8c0.44-0.53,0.67-1.22,0.67-2.08v-7.98h4.55v14.29h-4.35v-1.76h-0.08
			c-0.52,0.71-1.11,1.25-1.77,1.62C305.45,125.45,304.62,125.64,303.62,125.64"/>
		<path d="M314.5,110.93h4.35v2.23h0.08c0.5-0.85,1.06-1.48,1.68-1.87c0.61-0.39,1.36-0.59,2.23-0.59c0.43,0,0.73,0.04,0.89,0.11
			v3.91h-0.11c-1.4-0.2-2.51,0.03-3.34,0.71c-0.83,0.68-1.24,1.8-1.24,3.36v6.42h-4.55V110.93z"/>
		<path d="M325.19,110.93h4.38v1.95h0.08c0.54-0.78,1.16-1.37,1.86-1.77c0.7-0.4,1.55-0.6,2.55-0.6c0.78,0,1.48,0.13,2.09,0.4
			c0.61,0.27,1.14,0.64,1.56,1.12c0.43,0.47,0.75,1.04,0.98,1.7c0.22,0.66,0.34,1.39,0.34,2.19v9.3h-4.55v-8.37
			c0-0.76-0.19-1.38-0.56-1.84c-0.37-0.46-0.93-0.7-1.68-0.7c-0.76,0-1.37,0.28-1.83,0.84c-0.46,0.56-0.68,1.28-0.68,2.18v7.9h-4.55
			V110.93z"/>
		<path d="M346.77,122.68c0.86,0,1.55-0.23,2.08-0.7c0.53-0.46,0.79-1.09,0.79-1.87v-1.7c-0.3,0.15-0.65,0.28-1.05,0.41
			c-0.4,0.12-0.83,0.24-1.3,0.35c-0.87,0.2-1.51,0.44-1.9,0.71c-0.39,0.27-0.59,0.67-0.59,1.21c0,0.58,0.19,0.99,0.56,1.23
			C345.74,122.56,346.21,122.68,346.77,122.68 M345.32,125.58c-0.71,0-1.36-0.09-1.97-0.28c-0.61-0.19-1.12-0.46-1.55-0.84
			c-0.43-0.37-0.76-0.83-1-1.37c-0.24-0.54-0.36-1.16-0.36-1.87c0-0.78,0.14-1.44,0.43-1.97s0.68-0.97,1.19-1.31
			c0.5-0.34,1.08-0.61,1.74-0.8c0.66-0.19,1.36-0.33,2.11-0.42c1.34-0.17,2.28-0.35,2.82-0.56c0.54-0.21,0.81-0.55,0.81-1.03
			c0-0.46-0.15-0.84-0.46-1.12c-0.31-0.28-0.81-0.42-1.49-0.42c-0.73,0-1.27,0.16-1.65,0.47c-0.37,0.32-0.6,0.77-0.67,1.37h-4.19
			c0.02-0.67,0.17-1.3,0.45-1.9c0.28-0.6,0.68-1.12,1.21-1.56c0.53-0.45,1.2-0.8,2-1.06c0.8-0.26,1.74-0.39,2.82-0.39
			c1.08,0,1.99,0.1,2.74,0.29c0.74,0.19,1.38,0.49,1.9,0.88c0.61,0.45,1.07,1.02,1.37,1.7c0.3,0.69,0.45,1.48,0.45,2.37v7.2
			c0,0.58,0.03,1.03,0.1,1.35c0.07,0.33,0.2,0.55,0.41,0.68v0.2h-4.41c-0.11-0.15-0.2-0.36-0.28-0.63c-0.07-0.27-0.14-0.59-0.2-0.96
			h-0.06c-0.43,0.6-0.97,1.07-1.63,1.42C347.26,125.41,346.39,125.58,345.32,125.58"/>
	</g>
	<rect x="356.23" y="105.26" width="4.6" height="19.96"/>
	<path d="M363.04,110.93h4.55v14.29h-4.55V110.93z M363.04,105.26h4.55v3.69h-4.55V105.26z"/>
	<g>
		<path d="M375.85,125.67c-2.1,0-3.77-0.45-5-1.35c-1.23-0.9-1.88-2.14-1.95-3.73h4.3c0.09,0.71,0.36,1.24,0.81,1.59
			c0.45,0.35,1.05,0.53,1.81,0.53c0.69,0,1.23-0.12,1.63-0.36c0.4-0.24,0.6-0.6,0.6-1.06c0-0.32-0.1-0.57-0.31-0.77
			c-0.21-0.2-0.47-0.35-0.81-0.47s-0.72-0.21-1.16-0.28c-0.44-0.07-0.89-0.14-1.35-0.24c-0.62-0.11-1.23-0.24-1.84-0.4
			c-0.61-0.16-1.17-0.4-1.66-0.71s-0.89-0.74-1.19-1.27c-0.3-0.53-0.45-1.21-0.45-2.05c0-0.74,0.16-1.4,0.49-1.98
			c0.32-0.58,0.77-1.06,1.33-1.44c0.56-0.38,1.21-0.67,1.97-0.86c0.75-0.2,1.55-0.29,2.39-0.29c2.03,0,3.58,0.41,4.66,1.23
			c1.08,0.82,1.67,1.94,1.79,3.35h-4.19c-0.09-0.65-0.34-1.09-0.74-1.33c-0.4-0.23-0.92-0.35-1.55-0.35c-0.56,0-1.03,0.11-1.41,0.32
			s-0.57,0.54-0.57,0.99c0,0.26,0.09,0.47,0.28,0.62c0.18,0.15,0.43,0.27,0.75,0.38c0.32,0.1,0.68,0.19,1.1,0.27
			c0.42,0.07,0.85,0.15,1.3,0.22c0.63,0.11,1.27,0.25,1.91,0.41c0.64,0.16,1.23,0.4,1.76,0.74c0.53,0.33,0.96,0.78,1.3,1.35
			c0.33,0.57,0.5,1.31,0.5,2.22c0,0.78-0.17,1.47-0.49,2.06c-0.33,0.6-0.78,1.09-1.36,1.48c-0.57,0.39-1.26,0.69-2.07,0.89
			C377.65,125.56,376.78,125.67,375.85,125.67"/>
		<path d="M389.08,125.39c-0.67,0-1.28-0.06-1.83-0.18s-1.03-0.33-1.44-0.63c-0.41-0.3-0.73-0.7-0.95-1.21
			c-0.22-0.51-0.33-1.15-0.33-1.91v-7.67h-1.9v-2.85h1.9v-4.52h4.44v4.52h2.6v2.85h-2.6v6.7c0,0.56,0.14,0.93,0.43,1.12
			c0.29,0.19,0.67,0.28,1.16,0.28c0.2,0,0.4,0,0.59-0.01c0.19-0.01,0.33-0.01,0.42-0.01v3.32c-0.2,0.06-0.51,0.11-0.93,0.15
			C390.21,125.36,389.7,125.39,389.08,125.39"/>
	</g>
	<path d="M393.21,110.93h4.55v14.29h-4.55V110.93z M393.21,105.26h4.55v3.69h-4.55V105.26z"/>
	<g>
		<path d="M409.43,116.54c-0.09-0.86-0.38-1.53-0.87-2.04c-0.49-0.5-1.1-0.75-1.84-0.75c-0.87,0-1.55,0.25-2.01,0.75
			c-0.46,0.5-0.77,1.18-0.92,2.04H409.43z M406.92,125.64c-1.17,0-2.23-0.19-3.18-0.57c-0.95-0.38-1.75-0.91-2.4-1.59
			c-0.65-0.68-1.15-1.48-1.51-2.42c-0.35-0.93-0.53-1.93-0.53-3.01c0-1.06,0.18-2.05,0.53-2.97c0.35-0.92,0.86-1.72,1.51-2.4
			c0.65-0.68,1.42-1.21,2.32-1.59s1.89-0.57,2.99-0.57c1.02,0,1.94,0.16,2.75,0.47c0.81,0.32,1.52,0.75,2.13,1.31
			c0.86,0.78,1.49,1.77,1.91,2.97c0.42,1.2,0.62,2.53,0.6,3.98h-10.27c0.15,0.97,0.48,1.73,1,2.29c0.52,0.56,1.26,0.84,2.2,0.84
			c0.6,0,1.09-0.13,1.48-0.38s0.69-0.6,0.89-1.05h4.44c-0.15,0.65-0.43,1.27-0.84,1.86c-0.41,0.59-0.93,1.09-1.56,1.52
			c-0.6,0.43-1.26,0.75-2,0.98C408.65,125.53,407.83,125.64,406.92,125.64"/>
	</g>
	<polygon points="415.57,105.26 420.06,105.26 420.06,115.76 424.31,110.93 429.55,110.93 424.53,116.29 430.14,125.22 
		424.87,125.22 421.43,119.39 420.06,120.84 420.06,125.22 415.57,125.22 	"/>
</g>
</svg>
