<?xml version="1.0" standalone="no"?>
<!DOCTYPE svg PUBLIC "-//W3C//DTD SVG 20010904//EN"
 "http://www.w3.org/TR/2001/REC-SVG-20010904/DTD/svg10.dtd">
<svg version="1.0" xmlns="http://www.w3.org/2000/svg"
 width="520.000000pt" height="520.000000pt" viewBox="0 0 520.000000 520.000000"
 preserveAspectRatio="xMidYMid meet">
<metadata>
Created by potrace 1.11, written by Peter Selinger 2001-2013
</metadata>
<g transform="translate(0.000000,520.000000) scale(0.100000,-0.100000)"
fill="#000000" stroke="none">
<path d="M1805 3274 c-11 -2 -45 -9 -75 -15 -164 -33 -322 -152 -393 -299 -66
-134 -80 -210 -80 -415 0 -154 3 -192 21 -260 68 -246 212 -396 439 -456 103
-28 315 -30 418 -5 202 49 356 182 423 366 65 179 76 432 27 625 -57 224 -211
382 -430 441 -58 15 -305 29 -350 18z m268 -264 c153 -57 227 -212 227 -472 0
-195 -42 -322 -132 -403 -127 -114 -361 -108 -482 13 -69 68 -100 149 -116
302 -24 227 33 431 146 517 84 63 249 83 357 43z"/>
<path d="M2920 2541 l0 -721 150 0 150 0 0 275 0 276 86 -3 87 -3 169 -272
170 -273 169 0 168 0 -193 288 c-106 158 -201 299 -210 313 l-17 27 53 30 c69
39 140 113 174 182 24 47 29 70 32 156 3 73 0 117 -12 157 -36 125 -137 216
-287 258 -78 22 -105 24 -386 27 l-303 4 0 -721z m529 458 c57 -12 104 -41
134 -81 28 -37 29 -138 3 -191 -34 -70 -136 -107 -293 -107 l-73 0 0 195 0
195 90 0 c49 0 112 -5 139 -11z"/>
</g>
</svg>
