<svg width="520" height="520" viewBox="0 0 520 520" fill="none" xmlns="http://www.w3.org/2000/svg">
<g filter="url(#filter0_d)">
<rect x="67" y="66" width="385" height="396" rx="40" fill="white"/>
</g>
<path d="M261.973 265.702C261.973 289.571 256.055 307.917 244.219 320.739C232.383 333.562 215.418 339.973 193.324 339.973C171.23 339.973 154.266 333.562 142.43 320.739C130.594 307.917 124.676 289.506 124.676 265.505C124.676 241.504 130.594 223.191 142.43 210.566C154.331 197.876 171.362 191.53 193.521 191.53C215.681 191.53 232.613 197.909 244.317 210.665C256.088 223.422 261.973 241.767 261.973 265.702ZM156.731 265.702C156.731 281.812 159.789 293.944 165.904 302.098C172.02 310.251 181.16 314.328 193.324 314.328C217.719 314.328 229.917 298.119 229.917 265.702C229.917 233.219 217.785 216.978 193.521 216.978C181.357 216.978 172.184 221.087 166.003 229.307C159.822 237.46 156.731 249.592 156.731 265.702Z" fill="#279DDD"/>
<path d="M322.435 257.812H332.298C341.964 257.812 349.098 256.201 353.701 252.979C358.304 249.757 360.605 244.693 360.605 237.789C360.605 230.951 358.238 226.085 353.504 223.191C348.835 220.298 341.569 218.852 331.706 218.852H322.435V257.812ZM322.435 282.667V338H291.858V193.799H333.876C353.471 193.799 367.97 197.382 377.373 204.55C386.776 211.651 391.478 222.468 391.478 237C391.478 245.482 389.143 253.044 384.475 259.686C379.806 266.261 373.198 271.423 364.649 275.171C386.349 307.588 400.486 328.531 407.062 338H373.132L338.709 282.667H322.435Z" fill="#054279"/>
<defs>
<filter id="filter0_d" x="13" y="16" width="493" height="504" filterUnits="userSpaceOnUse" color-interpolation-filters="sRGB">
<feFlood flood-opacity="0" result="BackgroundImageFix"/>
<feColorMatrix in="SourceAlpha" type="matrix" values="0 0 0 0 0 0 0 0 0 0 0 0 0 0 0 0 0 0 127 0"/>
<feOffset dy="4"/>
<feGaussianBlur stdDeviation="27"/>
<feColorMatrix type="matrix" values="0 0 0 0 0 0 0 0 0 0 0 0 0 0 0 0 0 0 0.25 0"/>
<feBlend mode="normal" in2="BackgroundImageFix" result="effect1_dropShadow"/>
<feBlend mode="normal" in="SourceGraphic" in2="effect1_dropShadow" result="shape"/>
</filter>
</defs>
</svg>
