<?xml version="1.0" encoding="UTF-8"?>
<svg width="87px" height="58px" viewBox="0 0 87 58" version="1.1" xmlns="http://www.w3.org/2000/svg" xmlns:xlink="http://www.w3.org/1999/xlink">
    <!-- Generator: Sketch 50.2 (55047) - http://www.bohemiancoding.com/sketch -->
    <title>Group</title>
    <desc>Created with Sketch.</desc>
    <defs></defs>
    <g id="Page-1" stroke="none" stroke-width="1" fill="none" fill-rule="evenodd">
        <g id="VNG-Realisatie" transform="translate(-34.000000, -37.000000)">
            <g id="Group" transform="translate(34.000000, 37.000000)">
                <path d="M86.8131429,22.9448571 C86.8131429,10.5377143 76.7537143,0.438857143 64.3628571,0.368571429 C64.3414286,0.367714286 64.32,0.365142857 64.2977143,0.365142857 L56.9717143,0.365142857 C55.7074286,0.365142857 54.6822857,1.38942857 54.6822857,2.65371429 C54.6822857,3.91885714 55.7074286,4.94314286 56.9717143,4.94314286 L64.2325714,4.94314286 C74.1591429,4.94314286 82.2342857,13.0182857 82.2342857,22.9448571 C82.2342857,32.8705714 74.1591429,40.9457143 64.2325714,40.9457143 L39.1842857,40.9457143 L39.1842857,36.7611429 L34.6062857,36.7611429 L34.6062857,45.5245714 L64.2977143,45.5245714 L64.2977143,45.5228571 C76.7177143,45.4868571 86.8131429,35.3734286 86.8131429,22.9448571" id="Fill-1" fill="#00A3DA"></path>
                <path d="M0.0882857143,22.9448571 C0.0882857143,35.3511429 10.1477143,45.45 22.5377143,45.5211429 C22.56,45.5211429 22.5814286,45.5245714 22.6037143,45.5245714 L29.9297143,45.5245714 C31.194,45.5245714 32.2191429,44.4994286 32.2191429,43.2351429 C32.2191429,41.9708571 31.194,40.9457143 29.9297143,40.9457143 L22.6688571,40.9457143 C12.7422857,40.9457143 4.66714286,32.8705714 4.66714286,22.9448571 C4.66714286,13.0182857 12.7422857,4.94314286 22.6688571,4.94314286 L47.7171429,4.94314286 L47.7171429,9.12771429 L52.2951429,9.12771429 L52.2951429,0.365142857 L22.6037143,0.365142857 L22.6037143,0.366 C10.1828571,0.402 0.0882857143,10.5162857 0.0882857143,22.9448571" id="Fill-2" fill="#00A3DA"></path>
                <polyline id="Fill-3" fill="#054279" points="23.4591429 24.9574286 19.1845714 13.6225714 14.0074286 13.6225714 21.4482857 32.2388571 25.0311429 32.2388571 32.7094286 13.6225714 27.8082857 13.6225714 23.4591429 24.9574286"></polyline>
                <polyline id="Fill-4" fill="#054279" points="47.7197143 25.4682857 40.4734286 13.6225714 34.6122857 13.6225714 34.6122857 32.2388571 39.1791429 32.2388571 39.1791429 20.0871429 46.6294286 32.2388571 52.2865714 32.2388571 52.2865714 13.6225714 47.7197143 13.6225714 47.7197143 25.4682857"></polyline>
                <path d="M65.3828571,20.9528571 L65.3828571,25.2145714 L68.6151429,25.2145714 L68.6151429,27.6617143 C68.2765714,27.8288571 67.8437143,27.9942857 67.3225714,28.1562857 C66.7277143,28.3414286 66.0034286,28.4357143 65.172,28.4357143 C64.3671429,28.4357143 63.6308571,28.2977143 62.9837143,28.026 C62.3382857,27.7551429 61.7777143,27.372 61.3157143,26.886 C60.8537143,26.4008571 60.4937143,25.818 60.2468571,25.1545714 C59.9974286,24.4885714 59.8705714,23.7394286 59.8705714,22.9302857 C59.8705714,22.1391429 59.9974286,21.3942857 60.2468571,20.718 C60.4937143,20.0477143 60.8537143,19.4614286 61.3157143,18.9745714 C61.7768571,18.4902857 62.3382857,18.1071429 62.9837143,17.8354286 C63.6317143,17.5637143 64.3671429,17.4257143 65.172,17.4257143 C66.144,17.4257143 66.9617143,17.5637143 67.6002857,17.8345714 C68.2397143,18.1071429 68.8225714,18.5134286 69.336,19.0414286 L69.5562857,19.2677143 L72.7697143,15.762 L72.552,15.5597143 C71.6057143,14.6845714 70.4905714,14.0571429 69.2374286,13.698 C68.0022857,13.344 66.6351429,13.1648571 65.172,13.1648571 C63.7337143,13.1648571 62.3897143,13.3937143 61.1734286,13.8454286 C59.9537143,14.298 58.8831429,14.958 57.9925714,15.804 C57.102,16.6517143 56.3965714,17.6931429 55.8994286,18.8974286 C55.4031429,20.0991429 55.1511429,21.4568571 55.1511429,22.9302857 C55.1511429,24.4045714 55.4031429,25.7622857 55.8994286,26.9648571 C56.3974286,28.17 57.102,29.2105714 57.9925714,30.0574286 C58.8831429,30.9034286 59.9537143,31.5634286 61.1734286,32.0168571 C62.3897143,32.4685714 63.7337143,32.6965714 65.172,32.6965714 C66.51,32.6965714 67.8411429,32.5577143 69.1285714,32.2825714 C70.4202857,32.0082857 71.6785714,31.554 72.8682857,30.9325714 L73.0294286,30.8485714 L73.0294286,20.9528571 L65.3828571,20.9528571" id="Fill-5" fill="#054279"></path>
                <path d="M35.5655491,57.3807321 L35.5655491,49.9476964 L37.8155491,49.9476964 C38.5287223,49.9476964 39.0753128,50.1050609 39.4553371,50.4197946 C39.8353613,50.7345284 40.0253705,51.191555 40.0253705,51.7908884 C40.0253705,52.7819648 39.5248175,53.4850827 38.5236964,53.9002634 L41.0047232,57.3807321 L39.7089643,57.3807321 L37.594567,54.2367589 L36.610192,54.2367589 L36.610192,57.3807321 L35.5655491,57.3807321 Z M36.610192,53.4482545 L36.9517098,53.4482545 C38.2776093,53.4482545 38.9405491,52.9276123 38.9405491,51.8863125 C38.9405491,51.1195676 38.3847511,50.7362009 37.2731384,50.7362009 L36.610192,50.7362009 L36.610192,53.4482545 Z M46.0973571,57.2049509 C45.4344074,57.4058448 44.8668908,57.5062902 44.3947902,57.5062902 C43.5912147,57.5062902 42.9358083,57.2392728 42.4285513,56.7052299 C41.9212943,56.1711871 41.6676696,55.4789507 41.6676696,54.6285 C41.6676696,53.8014869 41.8911607,53.1234803 42.3381496,52.5944598 C42.7851384,52.0654393 43.3568403,51.800933 44.0532723,51.800933 C44.7128738,51.800933 45.2226344,52.0353057 45.5825692,52.504058 C45.942504,52.9728104 46.1224688,53.6390984 46.1224688,54.502942 L46.1174464,54.8093036 L42.6771563,54.8093036 C42.8211302,56.105069 43.4556104,56.752942 44.5806161,56.752942 C44.9924485,56.752942 45.4980238,56.642452 46.0973571,56.4214687 L46.0973571,57.2049509 Z M42.7223571,54.066 L45.1280491,54.066 C45.1280491,53.051486 44.7497047,52.5442366 43.9930045,52.5442366 C43.232956,52.5442366 42.8094111,53.051486 42.7223571,54.066 Z M50.642558,56.6876518 C50.0499211,57.2334134 49.4790563,57.5062902 48.9299464,57.5062902 C48.4779352,57.5062902 48.102939,57.3648295 47.8049464,57.081904 C47.5069539,56.7989785 47.3579598,56.4415602 47.3579598,56.0096384 C47.3579598,55.4136533 47.6082363,54.9557895 48.1087969,54.6360335 C48.6093574,54.3162774 49.3267052,54.1564018 50.2608616,54.1564018 L50.4969107,54.1564018 L50.4969107,53.4984777 C50.4969107,52.865662 50.1721372,52.5492589 49.5225804,52.5492589 C49.0002563,52.5492589 48.4360879,52.7099716 47.830058,53.0314018 L47.830058,52.2127634 C48.496356,51.9415567 49.1207917,51.8059554 49.7033839,51.8059554 C50.312762,51.8059554 50.7622552,51.9432308 51.0518772,52.2177857 C51.3414992,52.4923407 51.486308,52.9192337 51.486308,53.4984777 L51.486308,55.9694598 C51.486308,56.5353109 51.6604134,56.8182321 52.0086295,56.8182321 C52.0521565,56.8182321 52.1157719,56.8115358 52.1994777,56.7981429 L52.2697902,57.3455759 C52.0454587,57.4527193 51.7976933,57.5062902 51.5264866,57.5062902 C51.0644307,57.5062902 50.7697908,57.2334134 50.642558,56.6876518 Z M50.4969107,56.1502634 L50.4969107,54.7389911 L50.1654375,54.7289464 C49.6230241,54.7289464 49.1844124,54.831903 48.8495893,55.0378192 C48.5147662,55.2437354 48.3473571,55.514101 48.3473571,55.8489241 C48.3473571,56.0866485 48.4310617,56.2875394 48.5984732,56.4516027 C48.7658848,56.615666 48.9701238,56.6976964 49.2111964,56.6976964 C49.6230288,56.6976964 50.051596,56.5152206 50.4969107,56.1502634 Z M53.5103036,57.3807321 L53.5103036,49.4504866 L54.4997009,49.4504866 L54.4997009,57.3807321 L53.5103036,57.3807321 Z M56.4835179,57.3807321 L56.4835179,51.9264911 L57.4729152,51.9264911 L57.4729152,57.3807321 L56.4835179,57.3807321 Z M56.4835179,50.9370937 L56.4835179,49.9476964 L57.4729152,49.9476964 L57.4729152,50.9370937 L56.4835179,50.9370937 Z M60.9031607,57.5062902 C60.4511495,57.5062902 59.9020479,57.4008225 59.2558393,57.1898839 L59.2558393,56.2808437 C59.9020479,56.6022739 60.4645422,56.7629866 60.9433393,56.7629866 C61.2279389,56.7629866 61.4639857,56.6859784 61.6514866,56.5319598 C61.8389875,56.3779412 61.9327366,56.1854208 61.9327366,55.9543929 C61.9327366,55.6162215 61.6699044,55.3366484 61.1442321,55.1156652 L60.5666652,54.8695714 C59.7128663,54.5146589 59.2859732,54.0040614 59.2859732,53.3377634 C59.2859732,52.8623146 59.4542193,52.4881554 59.7907165,52.2152746 C60.1272137,51.9423937 60.5884256,51.8059554 61.1743661,51.8059554 C61.4790551,51.8059554 61.8557254,51.8478076 62.3043884,51.9315134 L62.5103036,51.971692 L62.5103036,52.7953527 C61.9578455,52.6312894 61.5192338,52.5492589 61.1944554,52.5492589 C60.5582915,52.5492589 60.2402143,52.7802834 60.2402143,53.2423393 C60.2402143,53.5403318 60.4812833,53.7914454 60.9634286,53.9956875 L61.4405491,54.1965804 C61.9796143,54.4242601 62.3613069,54.664492 62.5856384,54.9172835 C62.8099699,55.1700749 62.9221339,55.485641 62.9221339,55.8639911 C62.9221339,56.3427881 62.7329617,56.7361994 62.3546116,57.0442366 C61.9762615,57.3522739 61.4924494,57.5062902 60.9031607,57.5062902 Z M67.5125357,56.6876518 C66.9198988,57.2334134 66.349034,57.5062902 65.7999241,57.5062902 C65.3479129,57.5062902 64.9729167,57.3648295 64.6749241,57.081904 C64.3769315,56.7989785 64.2279375,56.4415602 64.2279375,56.0096384 C64.2279375,55.4136533 64.478214,54.9557895 64.9787746,54.6360335 C65.4793351,54.3162774 66.1966828,54.1564018 67.1308393,54.1564018 L67.3668884,54.1564018 L67.3668884,53.4984777 C67.3668884,52.865662 67.0421149,52.5492589 66.392558,52.5492589 C65.870234,52.5492589 65.3060655,52.7099716 64.7000357,53.0314018 L64.7000357,52.2127634 C65.3663337,51.9415567 65.9907694,51.8059554 66.5733616,51.8059554 C67.1827397,51.8059554 67.6322329,51.9432308 67.9218549,52.2177857 C68.2114769,52.4923407 68.3562857,52.9192337 68.3562857,53.4984777 L68.3562857,55.9694598 C68.3562857,56.5353109 68.5303911,56.8182321 68.8786071,56.8182321 C68.9221341,56.8182321 68.9857496,56.8115358 69.0694554,56.7981429 L69.1397679,57.3455759 C68.9154364,57.4527193 68.667671,57.5062902 68.3964643,57.5062902 C67.9344084,57.5062902 67.6397685,57.2334134 67.5125357,56.6876518 Z M67.3668884,56.1502634 L67.3668884,54.7389911 L67.0354152,54.7289464 C66.4930018,54.7289464 66.0543901,54.831903 65.719567,55.0378192 C65.3847439,55.2437354 65.2173348,55.514101 65.2173348,55.8489241 C65.2173348,56.0866485 65.3010393,56.2875394 65.4684509,56.4516027 C65.6358624,56.615666 65.8401015,56.6976964 66.0811741,56.6976964 C66.4930065,56.6976964 66.9215737,56.5152206 67.3668884,56.1502634 Z M72.017558,57.5062902 C71.5153234,57.5062902 71.1235862,57.3623184 70.8423348,57.0743705 C70.5610834,56.7864227 70.4204598,56.3863151 70.4204598,55.8740357 L70.4204598,52.6697946 L69.7374241,52.6697946 L69.7374241,51.9264911 L70.4204598,51.9264911 L70.4204598,50.9370937 L71.4098571,50.8416696 L71.4098571,51.9264911 L72.8361964,51.9264911 L72.8361964,52.6697946 L71.4098571,52.6697946 L71.4098571,55.6932321 C71.4098571,56.4064054 71.7178898,56.7629866 72.3339643,56.7629866 C72.4645453,56.7629866 72.6235839,56.7412234 72.8110848,56.6976964 L72.8110848,57.3807321 C72.5063958,57.4644379 72.2418895,57.5062902 72.017558,57.5062902 Z M74.2273795,57.3807321 L74.2273795,51.9264911 L75.2167768,51.9264911 L75.2167768,57.3807321 L74.2273795,57.3807321 Z M74.2273795,50.9370937 L74.2273795,49.9476964 L75.2167768,49.9476964 L75.2167768,50.9370937 L74.2273795,50.9370937 Z M81.1983616,57.2049509 C80.5354119,57.4058448 79.9678952,57.5062902 79.4957946,57.5062902 C78.6922192,57.5062902 78.0368128,57.2392728 77.5295558,56.7052299 C77.0222988,56.1711871 76.7686741,55.4789507 76.7686741,54.6285 C76.7686741,53.8014869 76.9921652,53.1234803 77.439154,52.5944598 C77.8861429,52.0654393 78.4578447,51.800933 79.1542768,51.800933 C79.8138783,51.800933 80.3236388,52.0353057 80.6835737,52.504058 C81.0435085,52.9728104 81.2234732,53.6390984 81.2234732,54.502942 L81.2184509,54.8093036 L77.7781607,54.8093036 C77.9221346,56.105069 78.5566149,56.752942 79.6816205,56.752942 C80.093453,56.752942 80.5990283,56.642452 81.1983616,56.4214687 L81.1983616,57.2049509 Z M77.8233616,54.066 L80.2290536,54.066 C80.2290536,53.051486 79.8507091,52.5442366 79.0940089,52.5442366 C78.3339605,52.5442366 77.9104156,53.051486 77.8233616,54.066 Z" id="Realisatie" fill="#054279"></path>
            </g>
        </g>
    </g>
</svg>
