<svg width="239" height="119" viewBox="0 0 239 119" fill="none" xmlns="http://www.w3.org/2000/svg">
<g clip-path="url(#clip0)">
<rect width="239" height="119" transform="translate(239 119) rotate(-180)" fill="white"/>
<path d="M24.0472 88.6603C21.2098 88.6603 18.5592 88.2123 16.0952 87.3163C13.7058 86.3456 11.6152 85.0389 9.82316 83.3963C8.10583 81.7536 6.72449 79.8123 5.67916 77.5723C4.70849 75.3323 4.22316 72.9056 4.22316 70.2923C4.22316 67.5296 4.82049 65.0283 6.01516 62.7883C7.20983 60.5483 8.88983 58.6069 11.0552 56.9643C13.2952 55.3216 15.9085 54.0523 18.8952 53.1563C21.9565 52.2603 25.3165 51.8123 28.9752 51.8123C31.7378 51.8123 34.4632 52.0736 37.1512 52.5963C39.8392 53.0443 42.2658 53.6789 44.4312 54.5003V50.4683C44.4312 46.1376 43.1992 42.7776 40.7352 40.3883C38.2712 37.9243 34.7245 36.6923 30.0952 36.6923C26.9592 36.6923 23.8605 37.2896 20.7992 38.4843C17.8125 39.6043 14.7138 41.2469 11.5032 43.4123L7.69516 35.5723C15.2365 30.4949 23.0765 27.9563 31.2152 27.9563C39.2792 27.9563 45.5512 30.0096 50.0312 34.1163C54.5112 38.2229 56.7512 44.1216 56.7512 51.8123V72.9803C56.7512 75.5936 57.8338 76.9376 59.9992 77.0123V87.5403C58.8045 87.7643 57.7592 87.9136 56.8632 87.9883C56.0418 88.0629 55.2205 88.1003 54.3992 88.1003C52.0098 88.1003 50.1432 87.5029 48.7992 86.3083C47.5298 85.1136 46.7458 83.5829 46.4472 81.7163L46.1112 78.0203C43.4978 81.4549 40.2498 84.1056 36.3672 85.9723C32.5592 87.7643 28.4525 88.6603 24.0472 88.6603ZM27.4072 79.5883C30.3938 79.5883 33.1938 79.0656 35.8072 78.0203C38.4952 76.9003 40.5858 75.3696 42.0792 73.4283C43.6472 72.0843 44.4312 70.6656 44.4312 69.1723V61.4443C42.3405 60.6229 40.1005 59.9883 37.7112 59.5403C35.3965 59.0923 33.1192 58.8683 30.8792 58.8683C26.4738 58.8683 22.8525 59.8389 20.0152 61.7803C17.2525 63.6469 15.8712 66.1483 15.8712 69.2843C15.8712 72.1963 16.9538 74.6603 19.1192 76.6763C21.2845 78.6176 24.0472 79.5883 27.4072 79.5883ZM104.626 39.6043C99.8472 39.7536 95.5912 40.8736 91.8579 42.9643C88.1992 44.9803 85.5859 47.8923 84.0179 51.7003V87.5403H71.6979V28.9643H83.1219V42.0683C85.1379 38.0363 87.7512 34.8256 90.9619 32.4363C94.2472 29.9723 97.7566 28.6283 101.49 28.4043C102.237 28.4043 102.834 28.4043 103.282 28.4043C103.805 28.4043 104.253 28.4416 104.626 28.5163V39.6043ZM133.819 88.1003C129.862 88.1003 126.241 87.3163 122.955 85.7483C119.67 84.1056 116.833 81.9029 114.443 79.1403C112.129 76.3776 110.299 73.2043 108.955 69.6203C107.686 66.0363 107.051 62.2656 107.051 58.3083C107.051 54.1269 107.723 50.2069 109.067 46.5483C110.411 42.8149 112.278 39.6043 114.667 36.9163C117.057 34.1536 119.894 31.9883 123.179 30.4203C126.539 28.7776 130.235 27.9563 134.267 27.9563C138.971 27.9563 143.078 29.0763 146.587 31.3163C150.171 33.5563 153.121 36.4683 155.435 40.0523V28.9643H166.299V85.8603C166.299 90.1163 165.515 93.887 163.947 97.1723C162.379 100.458 160.177 103.22 157.339 105.46C154.577 107.775 151.291 109.53 147.483 110.724C143.675 111.919 139.569 112.516 135.163 112.516C128.667 112.516 123.254 111.396 118.923 109.156C114.667 106.991 111.083 103.93 108.171 99.9723L115.115 93.4763C117.355 96.6123 120.23 99.0016 123.739 100.644C127.323 102.287 131.131 103.108 135.163 103.108C137.702 103.108 140.091 102.772 142.331 102.1C144.646 101.428 146.662 100.383 148.379 98.9643C150.097 97.5456 151.441 95.7536 152.411 93.5883C153.457 91.4229 153.979 88.8469 153.979 85.8603V76.9003C151.889 80.4843 149.014 83.2469 145.355 85.1883C141.697 87.1296 137.851 88.1003 133.819 88.1003ZM137.851 78.1323C139.718 78.1323 141.51 77.8336 143.227 77.2363C144.945 76.5643 146.513 75.7056 147.931 74.6603C149.425 73.5403 150.694 72.3083 151.739 70.9643C152.785 69.5456 153.531 68.0523 153.979 66.4843V51.1403C153.233 49.2736 152.262 47.5936 151.067 46.1003C149.873 44.5323 148.491 43.1883 146.923 42.0683C145.43 40.9483 143.825 40.0896 142.107 39.4923C140.39 38.8203 138.673 38.4843 136.955 38.4843C134.267 38.4843 131.841 39.0816 129.675 40.2763C127.585 41.3963 125.793 42.9269 124.299 44.8683C122.806 46.7349 121.649 48.8629 120.827 51.2523C120.006 53.6416 119.595 56.1056 119.595 58.6443C119.595 61.3323 120.043 63.8709 120.939 66.2603C121.91 68.5749 123.217 70.6283 124.859 72.4203C126.502 74.1376 128.406 75.5189 130.571 76.5643C132.811 77.6096 135.238 78.1323 137.851 78.1323ZM199.105 88.6603C192.982 88.6603 188.353 86.6816 185.217 82.7243C182.081 78.6923 180.513 72.7189 180.513 64.8043V28.9643H192.833V62.3403C192.833 72.8683 196.566 78.1323 204.033 78.1323C207.542 78.1323 210.865 77.0496 214.001 74.8843C217.137 72.7189 219.564 69.5829 221.281 65.4763V28.9643H233.601V72.9803C233.601 74.3989 233.825 75.4069 234.273 76.0043C234.796 76.6016 235.692 76.9376 236.961 77.0123V87.5403C235.692 87.7643 234.646 87.9136 233.825 87.9883C233.004 88.0629 232.22 88.1003 231.473 88.1003C229.233 88.1003 227.329 87.5029 225.761 86.3083C224.193 85.0389 223.372 83.4336 223.297 81.4923L223.073 75.6683C220.46 79.9243 217.062 83.1723 212.881 85.4123C208.7 87.5776 204.108 88.6603 199.105 88.6603Z" fill="#3D3D3D"/>
<rect x="2.27026" y="94.5085" width="98.8541" height="9.84124" fill="#547F4B"/>
<rect x="2.27026" y="11.5333" width="234.773" height="9.84124" fill="#475668"/>
<rect x="178.777" y="94.5085" width="58.266" height="9.84124" fill="#863D3D"/>
</g>
<defs>
<clipPath id="clip0">
<rect width="239" height="119" fill="white" transform="translate(239 119) rotate(-180)"/>
</clipPath>
</defs>
</svg>
